<svg xmlns="http://www.w3.org/2000/svg" viewBox="0 0 72 30" shape-rendering="crispEdges"><rect x="8" y="12" width="1" height="1" fill="#bdea9b"/><rect x="8" y="13" width="1" height="2" fill="#79c264"/><rect x="8" y="15" width="1" height="2" fill="#54ab47"/><rect x="8" y="17" width="1" height="1" fill="#3c8c3e"/><rect x="9" y="13" width="1" height="2" fill="#79c264"/><rect x="9" y="15" width="1" height="2" fill="#54ab47"/><rect x="9" y="17" width="1" height="1" fill="#3c8c3e"/><rect x="12" y="11" width="1" height="1" fill="#bdea9b"/><rect x="12" y="12" width="1" height="2" fill="#79c264"/><rect x="12" y="14" width="1" height="3" fill="#54ab47"/><rect x="12" y="17" width="1" height="1" fill="#3c8c3e"/><rect x="13" y="12" width="1" height="2" fill="#79c264"/><rect x="13" y="14" width="1" height="3" fill="#54ab47"/><rect x="13" y="17" width="1" height="1" fill="#3c8c3e"/><rect x="15" y="12" width="1" height="1" fill="#bdea9b"/><rect x="15" y="13" width="1" height="2" fill="#79c264"/><rect x="15" y="15" width="1" height="3" fill="#54ab47"/><rect x="15" y="18" width="1" height="1" fill="#3c8c3e"/><rect x="16" y="13" width="1" height="2" fill="#79c264"/><rect x="16" y="15" width="1" height="3" fill="#54ab47"/><rect x="16" y="18" width="1" height="1" fill="#3c8c3e"/><rect x="19" y="11" width="1" height="1" fill="#bdea9b"/><rect x="19" y="12" width="1" height="2" fill="#79c264"/><rect x="19" y="14" width="1" height="4" fill="#54ab47"/><rect x="19" y="18" width="1" height="1" fill="#3c8c3e"/><rect x="20" y="12" width="1" height="2" fill="#79c264"/><rect x="20" y="14" width="1" height="4" fill="#54ab47"/><rect x="20" y="18" width="1" height="1" fill="#3c8c3e"/><rect x="22" y="14" width="1" height="1" fill="#bdea9b"/><rect x="22" y="15" width="1" height="2" fill="#79c264"/><rect x="22" y="17" width="1" height="2" fill="#54ab47"/><rect x="22" y="19" width="1" height="1" fill="#3c8c3e"/><rect x="23" y="15" width="1" height="2" fill="#79c264"/><rect x="23" y="17" width="1" height="2" fill="#54ab47"/><rect x="23" y="19" width="1" height="1" fill="#3c8c3e"/><rect x="25" y="12" width="1" height="1" fill="#bdea9b"/><rect x="25" y="13" width="1" height="2" fill="#79c264"/><rect x="25" y="15" width="1" height="4" fill="#54ab47"/><rect x="25" y="19" width="1" height="1" fill="#3c8c3e"/><rect x="26" y="13" width="1" height="2" fill="#79c264"/><rect x="26" y="15" width="1" height="4" fill="#54ab47"/><rect x="26" y="19" width="1" height="1" fill="#3c8c3e"/><rect x="29" y="15" width="1" height="1" fill="#bdea9b"/><rect x="29" y="16" width="1" height="2" fill="#79c264"/><rect x="29" y="18" width="1" height="1" fill="#54ab47"/><rect x="29" y="19" width="1" height="1" fill="#3c8c3e"/><rect x="30" y="16" width="1" height="2" fill="#79c264"/><rect x="30" y="18" width="1" height="1" fill="#54ab47"/><rect x="30" y="19" width="1" height="1" fill="#3c8c3e"/><rect x="32" y="13" width="1" height="1" fill="#bdea9b"/><rect x="32" y="14" width="1" height="2" fill="#79c264"/><rect x="32" y="16" width="1" height="3" fill="#54ab47"/><rect x="32" y="19" width="1" height="1" fill="#3c8c3e"/><rect x="33" y="14" width="1" height="2" fill="#79c264"/><rect x="33" y="16" width="1" height="3" fill="#54ab47"/><rect x="33" y="19" width="1" height="1" fill="#3c8c3e"/><rect x="36" y="15" width="1" height="1" fill="#bdea9b"/><rect x="36" y="16" width="1" height="2" fill="#79c264"/><rect x="36" y="18" width="1" height="1" fill="#54ab47"/><rect x="36" y="19" width="1" height="1" fill="#3c8c3e"/><rect x="37" y="16" width="1" height="2" fill="#79c264"/><rect x="37" y="18" width="1" height="1" fill="#54ab47"/><rect x="37" y="19" width="1" height="1" fill="#3c8c3e"/><rect x="39" y="13" width="1" height="1" fill="#bdea9b"/><rect x="39" y="14" width="1" height="2" fill="#79c264"/><rect x="39" y="16" width="1" height="3" fill="#54ab47"/><rect x="39" y="19" width="1" height="1" fill="#3c8c3e"/><rect x="40" y="14" width="1" height="2" fill="#79c264"/><rect x="40" y="16" width="1" height="3" fill="#54ab47"/><rect x="40" y="19" width="1" height="1" fill="#3c8c3e"/><rect x="42" y="13" width="1" height="1" fill="#bdea9b"/><rect x="42" y="14" width="1" height="2" fill="#79c264"/><rect x="42" y="16" width="1" height="3" fill="#54ab47"/><rect x="42" y="19" width="1" height="1" fill="#3c8c3e"/><rect x="43" y="14" width="1" height="2" fill="#79c264"/><rect x="43" y="16" width="1" height="3" fill="#54ab47"/><rect x="43" y="19" width="1" height="1" fill="#3c8c3e"/><rect x="46" y="12" width="1" height="1" fill="#bdea9b"/><rect x="46" y="13" width="1" height="2" fill="#79c264"/><rect x="46" y="15" width="1" height="4" fill="#54ab47"/><rect x="46" y="19" width="1" height="1" fill="#3c8c3e"/><rect x="47" y="13" width="1" height="2" fill="#79c264"/><rect x="47" y="15" width="1" height="4" fill="#54ab47"/><rect x="47" y="19" width="1" height="1" fill="#3c8c3e"/><rect x="49" y="13" width="1" height="1" fill="#bdea9b"/><rect x="49" y="14" width="1" height="2" fill="#79c264"/><rect x="49" y="16" width="1" height="3" fill="#54ab47"/><rect x="49" y="19" width="1" height="1" fill="#3c8c3e"/><rect x="50" y="14" width="1" height="2" fill="#79c264"/><rect x="50" y="16" width="1" height="3" fill="#54ab47"/><rect x="50" y="19" width="1" height="1" fill="#3c8c3e"/><rect x="53" y="12" width="1" height="1" fill="#bdea9b"/><rect x="53" y="13" width="1" height="2" fill="#79c264"/><rect x="53" y="15" width="1" height="3" fill="#54ab47"/><rect x="53" y="18" width="1" height="1" fill="#3c8c3e"/><rect x="54" y="13" width="1" height="2" fill="#79c264"/><rect x="54" y="15" width="1" height="3" fill="#54ab47"/><rect x="54" y="18" width="1" height="1" fill="#3c8c3e"/><rect x="56" y="14" width="1" height="1" fill="#bdea9b"/><rect x="56" y="15" width="1" height="2" fill="#79c264"/><rect x="56" y="17" width="1" height="1" fill="#54ab47"/><rect x="56" y="18" width="1" height="1" fill="#3c8c3e"/><rect x="57" y="15" width="1" height="2" fill="#79c264"/><rect x="57" y="17" width="1" height="1" fill="#54ab47"/><rect x="57" y="18" width="1" height="1" fill="#3c8c3e"/><rect x="59" y="11" width="1" height="1" fill="#bdea9b"/><rect x="59" y="12" width="1" height="2" fill="#79c264"/><rect x="59" y="14" width="1" height="3" fill="#54ab47"/><rect x="59" y="17" width="1" height="1" fill="#3c8c3e"/><rect x="60" y="12" width="1" height="2" fill="#79c264"/><rect x="60" y="14" width="1" height="3" fill="#54ab47"/><rect x="60" y="17" width="1" height="1" fill="#3c8c3e"/><rect x="63" y="13" width="1" height="1" fill="#bdea9b"/><rect x="63" y="14" width="1" height="2" fill="#79c264"/><rect x="63" y="16" width="1" height="1" fill="#54ab47"/><rect x="63" y="17" width="1" height="1" fill="#3c8c3e"/><rect x="64" y="14" width="1" height="2" fill="#79c264"/><rect x="64" y="16" width="1" height="1" fill="#54ab47"/><rect x="64" y="17" width="1" height="1" fill="#3c8c3e"/></svg>
